<?xml version="1.0" standalone="no"?>
<!DOCTYPE svg PUBLIC "-//W3C//DTD SVG 20010904//EN"
 "http://www.w3.org/TR/2001/REC-SVG-20010904/DTD/svg10.dtd">
<svg version="1.0" xmlns="http://www.w3.org/2000/svg"
 width="626.000000pt" height="626.000000pt" viewBox="0 0 626.000000 626.000000"
 preserveAspectRatio="xMidYMid meet">
<metadata>
Created by potrace 1.16, written by Peter Selinger 2001-2019
</metadata>
<g transform="translate(0.000000,626.000000) scale(0.100000,-0.100000)"
fill="#000000" stroke="none">
<path d="M5091 6203 c18 -32 96 -168 174 -303 124 -214 414 -717 736 -1275 54
-93 103 -176 109 -182 7 -8 37 -13 80 -13 63 0 70 2 70 19 0 17 -8 20 -50 23
l-50 3 50 85 50 85 0 808 0 807 -601 0 -600 0 32 -57z"/>
<path d="M893 3870 c-95 -14 -133 -48 -215 -190 -116 -200 -128 -226 -128
-285 0 -59 18 -100 134 -294 31 -52 56 -98 56 -102 0 -4 -31 -60 -68 -125
-127 -219 -123 -210 -123 -281 -1 -63 1 -68 88 -221 98 -174 150 -235 213
-252 28 -7 178 -10 473 -8 l432 3 42 29 c43 29 56 47 159 221 127 215 126 221
-25 484 -39 68 -71 129 -71 136 0 6 25 54 56 106 118 199 134 235 134 297 0
52 -6 68 -61 167 -34 61 -74 132 -88 159 -36 67 -101 132 -147 147 -45 15
-773 23 -861 9z m669 -276 l-69 -119 -377 -3 c-297 -2 -376 0 -376 10 0 7 10
29 22 48 11 19 32 55 46 80 13 25 35 60 49 77 l24 33 367 2 c202 2 371 0 375
-3 4 -3 -23 -59 -61 -125z m281 -77 c37 -68 67 -128 67 -134 0 -5 -21 -46 -47
-90 -27 -44 -57 -96 -67 -116 -11 -21 -23 -37 -27 -37 -4 0 -27 35 -51 77 -23
43 -53 96 -66 118 -31 54 -25 81 42 194 31 52 56 99 56 103 0 4 6 8 13 8 6 0
42 -56 80 -123z m-291 -307 c33 -58 91 -158 129 -223 38 -65 69 -119 69 -121
0 -2 25 -45 55 -95 30 -51 55 -96 55 -102 0 -6 -138 -8 -377 -7 l-377 3 -49
85 c-27 47 -73 126 -102 175 -29 50 -62 106 -72 125 -11 19 -48 83 -81 142
-34 58 -62 111 -62 117 0 8 109 10 376 9 l376 -3 60 -105z m-647 -495 c67
-115 74 -138 51 -170 -7 -11 -25 -42 -41 -70 -53 -97 -77 -135 -84 -135 -4 0
-14 12 -22 28 -7 15 -37 67 -66 117 -29 49 -53 97 -53 107 0 9 25 61 56 115
65 113 74 125 86 121 6 -2 38 -53 73 -113z m955 -215 c0 -5 -25 -50 -55 -100
-30 -50 -55 -94 -55 -97 0 -4 -7 -15 -17 -25 -15 -17 -40 -18 -390 -18 -205 0
-373 2 -373 5 0 2 14 28 30 57 17 29 47 83 68 120 l37 68 378 0 c235 0 377 -4
377 -10z"/>
<path d="M3777 3480 c-79 -62 -40 -180 61 -180 82 0 126 75 87 151 -27 50
-102 65 -148 29z"/>
<path d="M2472 3439 c-63 -12 -142 -59 -173 -102 -55 -76 -61 -209 -12 -283
27 -42 99 -82 208 -115 122 -38 186 -71 208 -109 22 -37 10 -72 -35 -101 -53
-33 -134 -23 -242 29 -48 23 -94 42 -101 42 -18 0 -95 -91 -95 -112 0 -25 113
-95 194 -120 96 -30 239 -30 312 -1 76 30 120 68 150 129 22 46 26 64 22 121
-7 129 -65 189 -232 242 -113 35 -168 62 -195 97 -28 36 -26 70 5 99 50 47
150 43 255 -10 27 -14 55 -25 63 -25 18 0 66 78 66 107 0 75 -241 143 -398
112z"/>
<path d="M3058 3440 c-17 -10 -18 -42 -18 -439 0 -331 3 -431 13 -439 18 -15
523 -20 537 -6 19 19 24 116 7 138 -13 18 -26 19 -175 17 -103 -2 -168 2 -181
9 -21 10 -21 17 -21 360 0 192 -3 351 -7 353 -19 12 -139 17 -155 7z"/>
<path d="M4694 3431 c-49 -22 -86 -69 -144 -178 -24 -46 -56 -95 -72 -110
l-28 -27 -29 35 c-17 18 -53 78 -81 131 -30 57 -63 106 -80 118 -59 42 -190
52 -190 14 0 -8 39 -79 87 -157 188 -308 195 -327 202 -537 l6 -165 70 -8 c44
-5 79 -4 93 3 22 10 23 12 20 157 -3 173 2 195 73 318 139 241 209 370 209
387 0 20 -36 38 -73 38 -12 0 -40 -9 -63 -19z"/>
<path d="M4975 3434 c-13 -13 -15 -72 -15 -444 0 -497 -11 -455 112 -442 l73
7 5 115 5 115 138 11 c242 20 338 81 367 235 12 61 -2 188 -27 250 -17 43 -70
95 -118 115 -61 25 -192 43 -357 48 -142 4 -170 3 -183 -10z m422 -178 c17
-11 41 -37 53 -59 19 -32 22 -49 17 -94 -7 -63 -25 -96 -70 -123 -43 -27 -231
-30 -241 -4 -12 31 -7 279 7 293 19 20 193 10 234 -13z"/>
<path d="M3760 3180 c-20 -20 -20 -31 -18 -312 2 -341 -2 -328 98 -328 91 0
89 -10 82 338 -4 236 -7 296 -19 308 -23 23 -118 19 -143 -6z"/>
<path d="M0 943 l0 -323 304 0 c211 0 307 3 312 11 4 6 -125 143 -305 322
l-311 312 0 -322z"/>
<path d="M0 290 l0 -290 310 0 310 0 0 290 0 290 -310 0 -310 0 0 -290z"/>
<path d="M667 573 c-4 -3 -7 -134 -7 -290 l0 -283 295 0 c162 0 295 3 295 8 0
8 -563 572 -571 572 -3 0 -9 -3 -12 -7z"/>
</g>
</svg>
